<?xml version="1.0" encoding="UTF-8"?>
<svg id="Layer_1" data-name="Layer 1" xmlns="http://www.w3.org/2000/svg" viewBox="0 0 454.37 96.42">
  <defs>
    <style>
      .cls-1 {
        fill: #c24846;
      }

      .cls-2 {
        fill: #c14544;
      }

      .cls-3 {
        fill: #ecd3cb;
      }

      .cls-4 {
        fill: #eacec6;
      }

      .cls-5 {
        fill: #e7c3bd;
      }

      .cls-6 {
        fill: #d07a77;
      }

      .cls-7 {
        fill: #c55250;
      }

      .cls-8 {
        fill: #cc6966;
      }

      .cls-9 {
        fill: #cf7573;
      }

      .cls-10 {
        fill: #e5c0b9;
      }

      .cls-11 {
        fill: #e8c8c0;
      }

      .cls-12 {
        fill: #c95f5e;
      }

      .cls-13 {
        fill: #e0ada7;
      }

      .cls-14 {
        fill: #da9a96;
      }

      .cls-15 {
        fill: #e2b6b0;
      }

      .cls-16 {
        fill: #c34948;
      }

      .cls-17 {
        fill: #c34a48;
      }

      .cls-18 {
        fill: #dca19c;
      }

      .cls-19 {
        fill: #e9cbc3;
      }

      .cls-20 {
        fill: #e5bdb6;
      }

      .cls-21 {
        fill: #cd6f6d;
      }

      .cls-22 {
        fill: #c75756;
      }

      .cls-23 {
        fill: #c0403e;
      }

      .cls-24 {
        fill: #d27f7c;
      }

      .cls-25 {
        fill: #d48481;
      }

      .cls-26 {
        fill: #e4bab4;
      }

      .cls-27 {
        fill: #e0b0ab;
      }

      .cls-28 {
        fill: #d78f8b;
      }

      .cls-29 {
        fill: #c04140;
      }
    </style>
  </defs>
  <path class="cls-1" d="M117.56,51.98l1.49.11.95.88c-.03,1.26,2.08,1.59,3.01,1.61.11,0,.3.03.41.05-.08-.1.28.58.39.65l4.65,3.08c.16.1.55.76.64.92.14.25-.67.57-.99.66l-1,.3c-.87.26,2.86,2,1.11,4.28-.69.9-1.03,1.56-1.13,2.36l-1.02,1.53-.88.33c-.17.06-.05.63-.14.78l-.49.88-4.49,1.08-1.53-.02-1.38-.55-1.09-.53c-.12-.11-.37-.36-.54-.39l-.91-1.51-.04-5.58c0-.2-.13-.83-.3-.86l-.69-.11c-.75-1.13-1.73-2.14-2.94-2.6l-.22-1.84c-.62-5.23.6.61.31-5.63-.09-1.85,3.53-.13,6.83.11Z"/>
  <path class="cls-1" d="M380.15,48.36l.8.17c.01.23.15.86.43.86h.79c.83.02,2.19.82,2.85,1.57,0,.24.06.89.34.92l.79.06c.14.03.34.06.45.12l1.25,1.93-1.92.94c2.65,4.76.05,3.35-.34,6.53l-.54,1.01c-.67.17-1.28.75-1.46,1.42l-.92,1.14h-4.62c-.84,0-6.06-2.62-4.18-6.84,1.16-2.6-4.27-3.52-3.73-8.04.15-1.25.17-2.04.17-3.35,0-3.07,8.53,1,9.84,1.54Z"/>
  <path class="cls-5" d="M86.96,32.12c-9.16-1.76-6.82-2.96-9.51-4.59-.54-.33-2.21-.05-2.72.31-.73.52-1.22,1.56-1.37,2.71,3.56-.46,5.35.98,7.61,3.09,1.71,1.6,5.48,3.78,3.73,5.71-7.26-.14-10.45.59-13.6-5.86-6.27.82-8.09,1.13-12.61-3.43-1.64-1.66-1-4.52-1.06-6.33-1.63-1.86-5.95-7.89-6.25-9.69-.61-3.62,6.12-3.89,9.35-2.6,5.16,2.07,11.56,4.76,15.48,8.51l1.75,5.09c2.21.32,2.7-3.92,8.78-1.96l4.98,1.6c1.09.35,2.91,2.05,3.74,3.01.51.58-.01,2.83-.76,3.04-3.9,1.1-4.48,1.96-7.54,1.37ZM60,29.95l1.44,1.04c.31,2.26,6.37,2.62,7.63,1.55,1.38-1.17,2.43-2.65,3.51-4.13,2.55-3.5,3.88-.64,3.44-4.66-.29-2.63-1.58-4.56-3.95-5.18-.16-.04-.41-.11-.54-.16,0-1.53-4.78-3.17-6.01-3.44-.09,0-.28.01-.37-.01.11.03-.4-.97-.64-1.06l-5.45-1.89c-1.65-.57-3.42-.28-4.48.88.5,1.58.48,2.44-.39,3.64.38,1.22,1.12,3.39,1.94,4.22l2.88,2.9-.46,3.43c-.16,1.22.62,2.27,1.45,2.88ZM81.56,29.5l1,.16c.24,1.13,8.2,2.63,8.7.76l.45-1.67,2.41-.7c-1.47-1.15-2.77-2.35-3.79-2.64l-5.93-1.67c-1.56-.44-4.38,1.45-5.35,2.81-.09,1.26,1.47,2.75,2.52,2.94ZM79.58,37.92l2.27-.1-2.68-3.37c-.09-2.97-5.28-2.94-6.9-2.05l1.28,2.72c.44.94,1.3,1.81,2.33,2.08l3.7.73Z"/>
  <path class="cls-20" d="M183.04,26l-.03.93c0,.1-.02.3-.03.43l-.65.17c-.17.04-.47.68-.3.73l.97.33c.33,1.3,2.11,2.66,3.56,2.48l.02.78c-.95-.01-2.81-.5-3.57-1.14l-2.28-1.93c-.64-.54-2.42-.43-3.04.03-.52.39-.83,2-.53,2.45,1.32.25,3.57.43,4.43,1.19l3.28,2.86c.88.77,2.28,1.92,3.27,2.6.49.34.4,2.29-.2,2.36-13.96,1.16-11.74-6.09-13.93-5.82-6.25.78-7.65.95-12.72-4.2l-.17-5.99c-1.75-1.56-2.86-3.04-4.02-4.86-1-1.58-2.75-3.16-2.34-5.42.38-2.1,6.1-2.63,8.91-1.58,4.58,1.71,8.41,3.47,12.36,6.13l1.92,1.29c1.55,1.04,2.5,3.77,3,5.75.37.27,1.61.45,2.09.43ZM177.59,27.1l1.03-.91c.21-.19-.38-.8-.76-1.18-1.87-1.86,1.24-3.09-.85-4.41l-4.36-2.77c-3.25-2.06-7.91-3.64-11.61-4.88-.86.31-2.07,1.13-1.86,1.93.17.62.25,2-.54,2.89,1.9,8.58,4.97,1.29,4.4,12.12,1.85,3.27,5.69,4.52,9.22,3.24,3.23-2.87,2.9-3.91,5.32-6.04ZM183.64,38.59l-1.71-4.26c-.51-1.28-3.23-1.8-4.91-1.8-.52,0-1.22,1.35-.95,1.85l1.82,3.28c1.8.48,3.67.75,5.75.93Z"/>
  <path class="cls-23" d="M284.57,33.49l1.95.49.1.98,2.59.37,2.79,1.16.35.95c.08.22.67-.4.76-.45.48.17,1.08.55,1.45.91.01.3,0,.94.28.98.19.03.66-.06.83.03l.95.5-.68,2.21-.09,3.39c0,.19.33,4.51.66,3.9l-.44.98-1.01.08c-.41.03-1.02.55-1.53,1.06-2.31,2.31-3.09.09-5.01,1.41l-2.42-.57-1.04-1.84c-.08-1.68,0-3.25.26-5.19.07-1.42-1.3-2.84-2.68-2.93-.64-.35-1.12-1.09-1.26-1.82l.59-4.12.28-2.24,2.31-.22Z"/>
  <path class="cls-26" d="M30.56,67.98l3.53.63c1.56.28,4.38.46,5.8.25.21-.03.62-.19.73-.37,1.4-2.36,3.69-1.92,3-2.62-1.51-1.54-2.17-1.72-3.61-2.3-.37-.15-.92-.29-1.34-.25l-.12-.79-2.01-.06-1.46-.04h-.48s-.03-.72-.03-.72c-.01-.32-3.86-.17-6.24,2.25-.14.14-.37,1.13-.21,1.2l.79.37,1.67,2.45c-.54-.15-1.44-.62-1.86-1.03l-1.9-1.86c-.64-.18-2.57.43-3.06,1.02l-1.89,2.28,1.17,1.08c-.42,0-1.21.82-1.57,1.16l1.61,2.89c.15.28.69.78.96.93.1.05.31.09.44.11l.41.81,2.21.69-.49.62c-6.46-.36-4.15-6.09-7.04-5.22-4.57,1.39-10.27-.05-12.85-4.57l-.11-5.27c-.88-.94-2.14-1.97-2.68-2.88l-1.53-2.58c-.79-1.33-1.52-2.32-2.29-3.85-.48-.95.84-2.65,1.82-2.84l4.47-.87c2.46.78,4.69,1.37,6.84,2.33l4.47,2.01c1.39.62,2.79,1.52,4.07,2.31,3.07,1.88,5.26,4.12,5.3,8.15l2.73-1.77c2.95-1.91,7.62-.07,11.46,1.22-.4-.13,4.48,2.5,4.18,4.25-.09.52-.91,1.45-1.41,1.62l-3.42,1.17c-2.93,1-9.84-.4-10.05-1.91ZM5.6,58.5l1.45,1.08c.45.33,1.09,1.15,1.37,1.55l-.46,4.25c-.03.27.03,1.13.15,1.28.18.22.44.26.85.35,0,.14.02.42.04.56.09.57.91,1.24,1.52,1.38l1.4.64c-.16,1.59,5.65,1.69,6.16.99,4.02-3.5,2.28-3.94,6.77-6.85.65-.42-.15-2.3-.29-3.05-.18-.96-.4-2.45-1.1-2.93l-4.09-2.79c-1.11-.76-3.51-1.75-4.76-2l-.6-.12c-.22-.32-1.13-1.04-1.59-1.2l-3.83-1.34c-1.55-.54-5.24.04-4.85,1l.64,1.58-.61,1.5c-.53,1.3.73,3.34,1.8,4.13Z"/>
  <path class="cls-15" d="M267.5,82.55c-5.54-.22-5.67-2.93-10.49-.14-.39.23-.91,1.09-.98,1.51-.39,2.3,3.31,3.41,4.91,3.55l1.61,1.12c-1.58.78-5.01-.25-6.76-2.34-1.06-1.27-2.68-1.88-4.28-1.11-.93.45-1.59,2.16-1.44,3.33-.37.53-.81,1.35-.96,1.91-.07.27-.09,1.02.19,1.04l.78.06c.29.6,1,1.75,1.4,2.43l-.07.49-.49.03c-2.33-.46-1.63-4.47-4.67-3.49-4.9,1.59-12.19-2.42-11.27-7.78.63-3.67-.82-1.44-2.75-5.73l-1.13-2.52c.13-1.38-.23-2.46-1.12-3.9l1.57-1.48,2.34-.73c2.14-.67,8.2,2.1,10.6,3.23,12.2,5.75,8.09,8.98,10.3,10.03,1.21.58,2.87-2.73,5.73-2.02l5.93,1.46c.36.09.93.84,1.03,1.03ZM250.03,84.17c.3-.42,1.34-1.26,1.69-1.65l-2.2-3.18,2.44-.95c-1.9-2.62-17.49-11.18-18.8-7.47.92,3.85-1.25,2.35-.25,4.96,1.92,5.03,4.76,3.33,3.97,6.35-.34,1.31-.54,3.22.09,4.18,1.8,2.73,4.77,3.98,8.01,3.39.82-.15,2.11-1.51,2.64-2.25l2.41-3.39Z"/>
  <path class="cls-10" d="M437.04,27.43l.02.53h-2.98c-.36,0-1.44.73-1.36.94.68,1.41,1.47,3.2,1.9,4.51-3.02-.97-.99-3.95-5-3.46-1.49.18-6.16.69-5.97-1.4l.8-.1c.42.31,1.5.47,2.22.44l.9.02c1.37.37,2.86-.66,3.47-1.93.55-.67,1.27-1.71,1.61-2.51l3.05-1.97c1.13-.73-.3-5.46-1.23-6.48v-.44c3.04.41,2.19,5.73,3.8,5.63,2.27-.14,2.59-3.24,7.67-1.5l4.57,1.57c1.12.39,2.9,1.96,3.8,2.9.25.66-.22,2.77-.93,2.96l-3.51.94c-4.03,1.08-9.53-.39-12.48-4.08-1.01-.27-2.64.45-3.69,1.32.49.68.97,1.22,1.2,1.28,1.01.23,1.72.5,2.16.84ZM449.77,26.21c-.06-.91.23-1.92.72-2.95-.15-.38-1.46-1.35-2.14-1.52l-4.41-1.11c-1.38-.35-4.04,1.21-4.7,2.51-1.21,3.06,10.71,6.07,10.52,3.07Z"/>
  <path class="cls-8" d="M145.58,55.85l-4.09,2.45c-3.35,2.01-6.01.66-8.86-1.41-1.69-1.24-2.81-2.68-3.48-4.74,3.76-3.36,5.38-.14,9.04-1.61,2.56.15,7.58,2.05,7.38,5.31Z"/>
  <path class="cls-27" d="M380.15,48.36c-1.31-.55-9.85-4.61-9.84-1.54,0,1.32-.02,2.11-.17,3.35-.54,4.52,4.89,5.44,3.73,8.04-1.87,4.22,3.35,6.83,4.18,6.83h4.62s-.14,1.31-.14,1.31c-4.5,2.07-10.89-3.49-10.66-5.63.71-6.71.57-1.76-3.57-9l-1.99-3.49c-.7-1.22.21-2.93,1.63-3.29,1.02-.26,3.1-.96,4.06-.77,1.96.39,8.32,2.14,8.16,4.18Z"/>
  <path class="cls-9" d="M291.25,29.91l-2.2-.16c-.41-2.09-4.7-4.94-1.03-5.11l4.52-.2c.97-.04,2.93-.62,3.69-.15l2.61,1.6c1.41.87.67,3.17-.7,4.21-3.76,2.86-4.79-.05-6.89-.2Z"/>
  <path class="cls-10" d="M33.09,58.77c-5.16-.23-10.44-5.64-9.25-7.73.23-.41,1.18-.88,1.65-.9l6.07-.18c1.15-.03,2.36-.19,3.48.09,3.17.77,6.44,3.45,5.41,5.07-.46.72-4.95,3.76-7.36,3.66ZM26.99,54.53c.88,1.05,3,2.46,4.49,2.93,1.09.35,2.87,1.32,3.19-.42l.9-.51.74-.06c.28-.02.53-1.17.26-1.25l-1.01-.29-.47-.45c-.17-1.11-1.52-1.3-2.65-1.46l-.87-.12c-.41-1.33-2.26-2.19-3.48-1.48l-1.53.04c-.16-.12-.82-.66-.87-.39l-.29,1.57c-.17.93,1.16,1.38,1.59,1.88Z"/>
  <path class="cls-15" d="M172.71,11.88c-2.99-2.47-4.48.73-6.01-2.43-1.65-3.41-2.07-1.66-1.94-4.33,1.76-.32,9.61-1.29,10.41-.83l3.09,1.78c.78.45.79,2.45.5,3.53-1.92,1.38-3.87,2.22-6.05,2.27ZM177.17,8.13l-3.06-2.25-4.51.83c.14,1.38,2.33,3.71,3.76,3.08l3.81-1.67Z"/>
  <path class="cls-20" d="M129.01,65.93l-1.43,3.13,2.51.14c1.96.11,2.93.71,4.31,1.91l4.07,3.55c.88.77,1.21,1.88,1.01,3.24-3.65.11-6.77-.2-10.2-1.14l-3.8-4.88-4.37,1.14.16-.94c1.3.11,2.7-.64,3.29-1.68l.49-.88c.27-.02.81-.07.88-.34.05-.18.11-.6.14-.77l1.02-1.53,1.92-.95ZM131.96,70.63c-1.72-.34-3.02-.21-4.71.11l2.1,4.5c2.13.64,4.4.91,6.16.79-1.92-.9-1.42-4.98-3.55-5.39Z"/>
  <path class="cls-20" d="M80.81,20.25c-2.82-1.36-3.18-1.86-5.46-4.15-.76-.77-1.21-3.16.13-3.58,2.02-.64,4.33-.38,6.35-.24.93-.51,2.32-.74,3.19-.37l3.65,1.54c1.87.79,3.07,2.65,2.63,4.62l-2.97.62c-1.76,2.57-4.84,2.84-7.53,1.54ZM77.97,17.04c1.23,1.01,2.5,2.21,4,2.42l2.02.69c.18.06,1.23-.05,1.3-.23l.36-.93.46-.44,1.28-.51c1.02-.41-2.38-2.94-3.28-2.38-.51-.19-1.41-.55-1.9-.67.31-1.5-3.8-1.96-5.54-1.82-.54.04-.78,1.95-.43,2.37.4.49,1.14,1.03,1.74,1.52Z"/>
  <path class="cls-14" d="M244.54,67.01l-2.57.55-3.32-4.69c1.6-2.58,3.65-.43,5.27-1.06,1.22-.47,3.7-1.1,4.77-.55l3.18,1.64c1.42.74.4,3.25-.65,4.14-2,1.7-4.52,2.1-6.68-.04ZM246.75,66.94c1.14-1.72,1.55-2.45,1.79-3.73-1.98-.54-3.07-.33-4.94.64l3.14,3.09Z"/>
  <path class="cls-11" d="M122.17,48.48l-3.49-.14-2.91-4.91c.41-1.85,2.78-1.18,6.26-1.48,1.29-.11,3.67-.75,4.68-.14l2.85,1.72c1.76,1.06.92,3.41-.38,4.53-1.95,1.68-4.56,1.93-7.01.42ZM128.24,46.3c.32-.13,1.1-.79.89-.99-.14-.13-.62-.55-.79-.65l-2.75-1.56-4.53.6c-.05.92.48,2.29,1.27,2.9l1.64,1.27c.36.28,1.46-.45,1.9-.62l2.39-.94Z"/>
  <path class="cls-4" d="M22.41,48.28c-5.04,2.19-4.72-1.49-7.49-.6s-1.69-.73-4.2-3.4c-.47-.5-.76-2.4,0-2.47l4.7-.42c1.85-.65,3.95-1.37,5.74-.45l3.23,1.67c1.51,2.08.18,4.73-1.97,5.67ZM22.97,45.69c.28-.11.86-1.26.62-1.43s-.69-.48-1.06-.69l-2.78-1.55-4.08.69c-.28.05-1.16.36-1.04.59l.64,1.2c.62,1.16,2.67,3.19,4.05,2.65l3.66-1.45Z"/>
  <path class="cls-4" d="M69.64,10.72c-6.76-1.74-5.17-.09-6.66-2.68-.53-.92-1.33-1.92-2.07-3.04-.59-.89,2.04-1.67,3.14-1.41,3.23.78,5.17-2.37,7.73-.78l3.13,1.93c.92.57.93,3.54.16,4.3-1.03,1.01-4.07,2.02-5.42,1.68ZM66.97,6.93l1.64,1.55.14.6c.06.25,1.16.54,1.43.41l4.85-2.4c-1.69-1.41-2.69-2.15-4.2-3.04l-4.56.71c-.34.05-.92,1.23-.64,1.43l1.34.75Z"/>
  <path class="cls-27" d="M293.05,36.46h-1.04s-2.79-1.15-2.79-1.15c-.67-.71-1.61-1.07-2.7-1.34l-1.95-.49c-.52-.46-1.58-.99-2.22-.99s-2.05.75-2.02,1.4c.14,4.1-1.02,4.75,1.06,6.18.14.74.62,1.48,1.26,1.82l1.6,2.32-.22,4.71c-.01.32.88.82,1.04,1.09l1.04,1.84c-.8-.19-1.7-.37-2.24-1.1-2.71-3.69-.07-5.67-1.65-7.39-1.4-1.53-2.73-3.39-3.83-5.14-1.16-1.85-2.68-3.34-1.14-5.71,1.62-.51,4.43-1.39,6.14-.82l6.13,2.05c-.12-.04,4.39,2.1,3.94,2.43l-.39.3Z"/>
  <path class="cls-5" d="M434.48,15.57v.44s-2.4-.98-2.4-.98l-.49-.17c-.17-.6-.85-1.22-1.47-1.32l-.95-.15c.08.16-.11-.78-.27-.84l-2.89-1.09c-.08-.03-.25,0-.37-.01,0-.27.01-.46-.1-.61-.1-.14-.7-.44-.91-.49l-3.57-.92c-.91-.23-2.82-.96-3.56.13-.47.69-.5,2.49-.5,3.34l-.66.16c-.16.04-.43.57-.28.64l.83.43c-.17,1.61.67,3.3,2.1,4.45,3.37,2.7.16,5.21,1.74,7.33.73.98,1.82,1.77,2.91,1.9v.76c-6.58-1.17-3.46-6.9-4.99-8.73-1.17-1.4-2.39-3.44-3.34-5.13s-2.7-3.76-1.25-5.82c1.24-.43,4.01-1.37,5.31-1.06,4.47,1.06,12.45,4.46,15.1,7.75Z"/>
  <path class="cls-10" d="M400.98,51.93c-2.44,2.11-4.65,2.46-7.33,1.39s-5.4-3.06-5.9-6.38c-.34-2.23,6.82-.85,9.42-1.84,3.64,1.66,5.84,1.58,6.28,5.75l-2.47,1.08ZM396.97,48.6c-3.05.05-3.31-2.58-7.38-1.49.41,1.91.87,2.93,2,3.81,4.43,3.42,7.21,1.41,7.23.98l.1-1.93c.03-.55.56-1.36.99-2.19.32-.68-2.19-1.58-2.47-1.1l-.47,1.92Z"/>
  <path class="cls-19" d="M400.1,56.99c-7.85-1.52-8.53,3.1-8.39,3.16l.75.32c.29.87,1.1,1.43,1.99,1.59.24.4,1.18,1.22,1.72,1.3l3.49.54c.36.06,1.08-.03,1.44-.09l1.75-.29c.5-.08.49-1.44.61-1.92l1.8-.3c.39-.07.37-1.02.37-1.41l1.06.22c.27.06.91,2.49.47,2.66l-1.19.46-2.92,1.14c-2.05.8-4.8.38-7.05-.25-5.94-1.65-3.79-4.41-6.65-3.96-1.38.22-2.81,2.06-2.09,2.67,1.27.32,2.33.55,2.76.98l-.5.58-3.37-.03-1.11-.92.02-.98.54-1.01,2.46-1.63c.59-.26,2.06-1.03,1.87-1.71l-1.4-5.06c.44.23,1.44.66,1.57,1.12l.96,3.37c2.5.03,2.71-3.04,7.45-1.61.26.08,1.02.07,1.29.1s.32.67.32.93Z"/>
  <path class="cls-4" d="M381.44,43.08l-3.22.28-2.3-4.09c-.14-.26-.29-1.07-.22-1.34s.78-.61,1.12-.64l4.2-.35c1.29-.11,3.69-.75,4.66-.16l2.91,1.79c.79.49.43,2.98-.18,3.71-1.7,2.02-4.69,3.09-6.96.8ZM387.43,41.17c1.68-.66-2.52-3.33-3.4-3.15l-4.05.8c.18,1.88,2.21,4.43,3.86,3.78l3.59-1.42Z"/>
  <path class="cls-19" d="M302.09,38.36l2.37,1.16c1.98.97,4.21.96,5.61-.56l.7-.12c.74-.13-.28-1.57,1.26-3.8l-3.61-1.61-.51,2.04-1.85-.39-.43-.11c.03-.18.11-.64-.06-.71l-1.08-.4c-.48-.18-1.65-.11-2.01.09l-.92.05-1.06-.22c-.24-.05-.57,1.11-.54,1.35.05.43.76,1.24,1.11,1.32l.6,1.89c-2.18-.14-3.55-3.74-2.73-4.97,1.89-.79,4.55-.83,6.52-.48,3.18-1.47,10.97,1.99,9.05,5.46l-2.84,1.11c-2.61,3.53-9.79,1.08-9.58-1.1Z"/>
  <path class="cls-3" d="M435.74,5.81c-2.22,3.54-6.91,1.22-9.21,1.08-2.86-.17-.41-.1-3.39-3.88-.19-.24-.48-.96-.46-1.24.03-.37.88-.53,1.36-.6l4.07-.62c1.16-.18,3.7-.98,4.62-.28l2.82,2.13c.65.49.61,2.73.18,3.4ZM435.35,4.14c-3.34-3.88-4.66-2.65-8.91-1.84.64,2.02,1.85,3.68,3.57,4.11,2.06.52,3.88-.29,5.33-2.26Z"/>
  <path class="cls-3" d="M262.57,77.52l.02-1.06.51-.41,1.25-.58c.38-.18-.37-1.31-.62-1.74.09.01,1.43-.98,1.27-1.36-.45-1.06-2.98-2.03-4.14-1.77l-.26,2.35-1.99-.96c-.04-.38-.56-1.27-.99-1.38s-1.26.13-1.65.35h-1.88s-1.2-.25-1.2-.25c-.25-.05-.33,1.04-.27,1.31l.47,1.87c-.83-.08-1.64-1.04-1.93-1.77-.23-.57.43-2.41,1.16-2.42l8.82-.14c1.58-.02,3.6,1.09,5.01,1.88s2.08,3.45.77,4.11l-2.52,1.27c-.55.28-1.35.59-1.82.7Z"/>
  <path class="cls-7" d="M255.96,70.96l2.64,1.04,1.99.96,1.8,1.31c.38.28.66,1.34.7,1.78l-.51.41-.93.28c-.17.05-.09.66-.09.73-1.25,0-3.45-.25-4.58-.5-.12-.03-.35-.05-.5-.07-.28-.74-1.05-1.35-1.83-1.49-.17-.37-.66-1.05-.69-1.45-.07-.83,0-2.19.12-3.01h1.88Z"/>
  <path class="cls-2" d="M144.18,69.04l-.13.48h-2.48c-.26.02-.76-.02-1.05-.05l-.37-.03c.03-.21-.09-.92-.37-.92-.21,0-.63.03-.82.05-1.5.14-4.5-1.22-4.83-3.15-.07-.4.69-1.15.99-1.44.61,1.33,2.86-1.23,4.12-.58.45.23.83.95,1.36,1.77l2.87.52.72,3.35Z"/>
  <path class="cls-21" d="M309.47,44.05c-.89.57,2.73,2.01,3.19,1.02l.82.06c.43.81,1.16,1.84,1.7,2.54l-1.02,1.11c-.24.26.34,1.06.47,1.29-.09.33-.3.92-.59,1.03l-1.59.59-.72-.06c-1.89-.15-4.96-1.04-7.17-2.01-1.04-.46-2.15-2.56-1.36-3.37,1.24-1.28,2.88-1.83,4.37-2.3l1.9.1ZM313.08,50.74l-.56-3.76-2.4.19-2.05-2.38-4.41,2.1c.76,1.77,2.1,2.63,3.76,2.9l5.65.94Z"/>
  <path class="cls-7" d="M302.48,33.95c.86.58,2.05.92,3.15,1.02l.43.11c.54,2.16,4.32.78,4.01,3.88-1.39,1.51-3.63,1.52-5.61.56l-2.37-1.16c-.1-.05-.29-.01-.42-.02l-.6-1.89.49-2.46.92-.05Z"/>
  <path class="cls-19" d="M187.57,21.37c.42-.44,1.09-1.12,1.56-1.46l1.35-.97c.33-.24-.44-1.18-.79-1.69l1.46-1.38c-.53-.92-2.38-1.78-3.13-1.19-.92.73-1.35,1.06-1.92,1.36-.16,0-.39-.02-.52-.05l-1.47-1.52v-.89s2.96-.58,2.96-.58c2.28.44,4.68,1.47,6.53,2.87.85.64,1.14,2.93.34,3.19-5.3,1.75-4.24,3.41-6.39,2.31Z"/>
  <path class="cls-7" d="M438.42,10.11l.13.75,2.62.55c.49.1,1.39.44,1.9.65l1.41,1.19c.37.32.86,1.08,1.1,1.64l.47,1.08c-.13.18-.71.47-1,.48l-3.94.07c-.25-.34-1.09-.66-1.5-.61-.86-2.34-2.57-1.56-2.62-3.89l.65-1.87.8-.03Z"/>
  <path class="cls-17" d="M185.6,15.99c.13.03.35.04.52.05.5,1.74,3.46.55,3.02,3.86-.48.34-1.14,1.02-1.56,1.46l-2.52-.52c-.34-.93-1.49-1.12-2.45-1.48-.81-.31-1.81-1.61-2.1-2.35l.23-2.13,2.81.64,2.06.47Z"/>
  <path class="cls-24" d="M267.5,82.55l1.55,1.02,1.01,1.69-1.96.79-.49,2.37-1.5.47-.52-.44-2.53.03c-.12,0-.34.07-.5.11l-1.61-1.12c.24-.08.87-.16,1.22-.14l3.76.27.06-4.11c.12-.02-1.12.13-1.71.2l-1.37.18c-.38.05-.68-.96-.99-1.46-.45-.7-2.28-.29-3.11.12l-2.77,1.38c.07-.42.59-1.28.98-1.51,4.81-2.8,4.95-.08,10.49.14Z"/>
  <path class="cls-8" d="M437.05,27.96l1.85,1.09.67,1.37c.02.72.18,1.76.44,2.41l.45,1.17-2.97.09c-.76.02-2.11-.43-2.88-.68-.43-1.31-1.22-3.1-1.9-4.51-.07-.21,1.01-.94,1.36-.94h2.98Z"/>
  <path class="cls-25" d="M188.07,24.45c3.61,2.33,3.53.21,8.33,3.85l-.02,1.08c-1.06.23-1.52.24-1.65.51s-.35,1.11-.52,1.4c-.64,1.11-3.21,1.45-4.14.69l2.51-.8.03-3.77-2.6.39c-.35.05-.81-.67-1.1-1.23-1.43-2.75-3.35.65-5.9.36l.03-.93c1.47-1.02,3.3-1.65,5.03-1.55Z"/>
  <path class="cls-11" d="M187.49,31.97l1.71-.15.86.16c.93.77,3.51.43,4.14-.69.17-.3.39-1.13.52-1.4s.59-.28,1.65-.51l.02-1.08c-4.8-3.64-4.72-1.53-8.33-3.85.26-.17,1.47-.44,1.88-.29l4.83,1.75c.92.33,2.48,1.83,3.34,2.57.65.56.08,2.9-.55,3.3-3.38.44-4.37,2.39-8.53,1.32l-1.47-.38c-.19-.05-.11-.56-.08-.76Z"/>
  <path class="cls-13" d="M131.04,61.52c.23,1.21.43,2.39,0,3.43l-2.04.98-1.92.95c.1-.8.44-1.46,1.13-2.36,1.75-2.27-1.98-4.02-1.11-4.28l1-.3c.32-.1,1.13-.42.99-.66-.09-.16-.48-.82-.64-.92l-4.65-3.08c-.11-.08-.47-.75-.39-.65l.7-.16c.64.33,1.35.75,2.14,1.23l4.3,2.63c.16,1.2.3,2.3.47,3.18Z"/>
  <path class="cls-12" d="M253.44,88.59c.26.32.75.69,1.14.89l1.01,1.01.92,3.92c-.93,0-1.97,0-2.68-.12l-2.34-.37c-.4-.68-1.1-1.84-1.4-2.43-.11-.22-.25-.75-.34-1-.06-.16-.44-.11-.63-.11.15-.56.6-1.39.96-1.91l3.36.12Z"/>
  <path class="cls-25" d="M400.1,56.99c1.05.2,2.53.8,3.74,1.29l1.78,1.62c0,.39.02,1.35-.37,1.41l-1.8.3c-.13.49-.11,1.84-.61,1.92l-1.75.29c1.18-1.3,1.21-3.23.82-5.05l-2.62.71-1.5-2.17c-1.52-.23-5.35,1.41-5.32,3.16l-.75-.32c-.14-.06.54-4.68,8.39-3.16Z"/>
  <path class="cls-19" d="M446.97,10.59l-2.59-.51c-.39,1.08-.74,1.84-1.31,1.98-.5-.21-1.4-.55-1.9-.65-.1-1.14-1.67-1.51-2.75-1.3l-.8.03c-.44.03-1.23.27-1.54.57s.59,1.27.9,1.3c.05,2.33,1.77,1.55,2.62,3.89-.32.06-1.1.19-1.35-.07l-3.12-3.33c-.4-.43-.56-1.99-.25-2.48s1.43-.9,2.06-.92l4.64-.17c.36-.01,5.66-.62,5.38,1.66Z"/>
  <path class="cls-22" d="M301.99,52.08l1.04.87c.03.42.08,1.14.07,1.53l-.09,3.4-1.34.02c.13-.15-.48-1.17-.79-.98l-.91.54h-.85c-.33-.53-.86-1.41-1.04-1.95l-.55-1.67c-.17-.53-.18-1.34.02-1.87l4.44.11Z"/>
  <path class="cls-19" d="M139.64,62.32l-2.67.34c-.54.07-1.45.93-1.85,1.32-.3.29-1.06,1.04-.99,1.44.33,1.92,3.34,3.29,4.83,3.15-.02.18-.08.65.09.68l1.1.19.37.03-.11.93-4.49-1.19c-.7-.19-2.6-2.16-3.28-3.23-.15-.23-.09-.93-.37-.91-.2.01-.64-.01-.8-.02l-.42-.09c.42-1.05.22-2.23,0-3.43.39.13.86.71,1.27,1.44l1,.43c1.16-.96,5.84-3.2,6.12-1.95l.2.88Z"/>
  <path class="cls-3" d="M307.56,43.94c-1.49.47-3.13,1.03-4.37,2.3-.79.81.32,2.91,1.36,3.37,2.21.97,5.28,1.86,7.17,2.01l-.25,1.01-5.67-1.43c-1.83-.46-3.26-2.01-4.42-3.64l-2.88.43,2.11-1.6c.58-.44.08-2.18,0-2.92l1.05.83c.27.21.85.94,1.08.75l.74-.65c1.16-1.01,2.99-1.53,4.06-.45Z"/>
  <path class="cls-20" d="M112.52,50.02l-3.43,1.22c1.27,3.68-1.5,4.89,1.33,6.25l.22,1.84c-.68-.26-1.2-.85-1.78-1.63-1.23-1.65-2.43-3.07-2.83-5.28-.14-.77.92-2.07,1.56-2.23l4.05-.98c.26-.06.6.72.88.8Z"/>
  <path class="cls-8" d="M298.96,40.58c0,.65-.19,2.14-.05,2.8l.61,2.78c-1.42.61-2.42,1.21-2.48,2.31l-.54.42c-.33.61-.66-3.71-.66-3.9l.09-3.39.68-2.21c.93.02,1.91.43,2.34,1.18Z"/>
  <path class="cls-19" d="M299.12,57.92v-.46s.85,0,.85,0c.24.19,1.23.45,1.7.44l1.34-.02,2.68-.03-1.76-2.75c-.12-.2-.77-.61-.83-.61.01-.39-.04-1.11-.07-1.53,1.69.4,4.66,3.33,5.63,4.71.22.32-.47,1.68-.87,1.69-1.15.03-8.67.17-8.68-1.43Z"/>
  <path class="cls-7" d="M389.51,64.41l1.54.63c.03.11.08.28.1.38l.56,3.53-1.57,1-1.07.02c-.03-.26-.05-.89-.32-.89-.19,0-.62-.08-.76-.11l-.43-.42-.03-1.29c0-.29-.75-.32-1.04-.3l-.91.04c-.03-.13-.06-.41-.03-.53l.58-2.09,3.37.03Z"/>
  <path class="cls-12" d="M139.64,62.32l1.79.24.05.45c.04.36.45,1.21.79,1.08l1.39-.56.89.1c1.33,1.36.64,6.05-.38,5.41l-.72-3.35-2.87-.52c-.53-.83-.91-1.54-1.36-1.77-1.25-.65-3.5,1.91-4.12.58.4-.39,1.31-1.25,1.85-1.32l2.67-.34Z"/>
  <path class="cls-3" d="M297.59,48.96l-.03,1.53,3.23.43c.43.06,1.17.84,1.19,1.17l-4.44-.11-1.05-.12c-.98-.11,0,3.44,1.58,3.65.18.54.7,1.42,1.04,1.96v.46c-3.68-1.05-2.29-4.95-5.55-4.4.13-.31.35-.86.49-1.13.2-.39.66-1.02.95-1.4l.73-.16c.26-.06.26-.7.33-.96l.44-.98.54-.42.55.49Z"/>
  <path class="cls-7" d="M27.56,70l.95,1.04-.84.42c-.15.07.14.64.16.84l.27,2.44-3.62-.19c-.14-.03-.35-.06-.44-.11.04-.65-.05-1.93-.53-2.35l-.96-.83c-.14-.12.36-.85.55-.87l2.44-.35c.5-.07,1.47-.04,2.02-.03Z"/>
  <path class="cls-27" d="M388.52,53.07l1.4,5.06c.19.68-1.28,1.45-1.87,1.71l-2.46,1.63c.39-3.18,2.99-1.77.34-6.53l1.92-.94-1.25-1.93,1.94,1.01Z"/>
  <path class="cls-3" d="M250.94,94.43l.49-.03c2.21.94,4.36,1.24,7.02.95,0-.82-.05-1.96-.34-2.41l-1.49-2.38c1.55.48,5.65,3.88,4.21,5.78-1.47.11-10.25.42-9.88-1.91Z"/>
  <path class="cls-19" d="M141.56,69.53h2.48c-.08-.02.77.52.87.35l1.59-2.67,1.57-.04c.42,0,.41-1.29.42-1.58.3.05,1.12.27,1.31.54.34.49.3,2.29-.24,2.55l-1.97.96c-1.06.51-7.04,2.58-6.03-.11Z"/>
  <path class="cls-10" d="M184.14,13.58v.89c-.93-.05-2.9-.2-3.97-.23-.46-.01-1.05,1.66-.68,1.96l1.01.81c.29.75,1.29,2.04,2.1,2.35l-.03.49c-2.03-.56-5.26-3.27-4.98-5.78,2.33-1.09,4.48-1.29,6.55-.5Z"/>
  <path class="cls-11" d="M437.5,34.09l2.97-.09c.26.24.65.73.83.48s.55-1.27.42-1.55l-1.12-2.41c.42.04,1.3.45,1.59.76l1.99,2.08c.26.28.43,1.32.16,1.6-.2.21-.97.51-1.31.49l-5.18-.26c-.25-.01-.4-1.13-.35-1.1Z"/>
  <path class="cls-13" d="M112.52,50.02c.54.17,1.46.35,2.05.46l1.68.84,1.32.66c-3.31-.24-6.92-1.96-6.83-.11.29,6.24-.93.4-.31,5.63-2.82-1.36-.05-2.58-1.33-6.25l3.43-1.22Z"/>
  <path class="cls-3" d="M312.45,51.68l1.59-.59c.3-.11.5-.69.59-1.03l3.04-1.22-1.13-2.21c.84.11,2.64,1.27,2.34,2.07l-.91,2.46-4.56,1.11c-.19.04-.75.14-.79,0s-.12-.39-.18-.57Z"/>
  <path class="cls-3" d="M392.09,70.93l1.87-.13c.26-.02,1.05-.19,1.08-.45.13-1.08-1.05-3.48-2.35-3.44l-.12-.93c.62.06,1.89.55,2.3,1.05l2.12,2.56c.24.29.58,1.2.55,1.57s-1.03.74-1.41.74h-3.54c-.25,0-.52-.87-.5-.97Z"/>
  <path class="cls-13" d="M256.62,90.57l1.49,2.38c.28.45.34,1.6.34,2.41-2.66.28-4.81,0-7.02-.95l.07-.49,2.34.37c.71.11,1.75.12,2.68.12l-.92-3.92c.27,0,.78,0,1.02.07Z"/>
  <path class="cls-15" d="M267.62,88.42l.49-2.37,1.96-.79-1.01-1.69c.89.24,1.95.75,2.34,1.39.34.56.09,2.56-.52,2.82-.81.35-2.42.6-3.26.65Z"/>
  <path class="cls-27" d="M300.05,41.42l.51,1.15.09.88c.07.75.57,2.49,0,2.92l-2.11,1.6c-.27.21-.69.69-.93.97l-.55-.49c.06-1.1,1.06-1.7,2.48-2.31l-.61-2.78c-.15-.66.05-2.15.05-2.8l1.09.85Z"/>
  <path class="cls-19" d="M441.1,16.5l3.94-.07c.29,0,.86-.29,1-.48l1.02-1.41c.5.1,1.81-.91,1.66-1.46l-.67-2.43c1.9.06,3.08,2.77,2.07,4.31-3.91.89-6.3,5.22-9.01,1.54Z"/>
  <path class="cls-3" d="M31.08,76.95c.8-.55,1.05-1.72.69-2.57l-.76-1.8c.91-.41,4.89,3.39,3.29,4.57-.73.54-2.6.3-3.22-.2Z"/>
  <path class="cls-26" d="M31.01,72.58l.76,1.8c.36.85.12,2.02-.69,2.57l-2.44-.11-.02-.72c.48.02,1.58-.32,1.92-.44-1.21-1.56-1.58-2.52-1.55-4.07l2.02.97Z"/>
  <path class="cls-24" d="M28.99,71.61c-.03,1.55.33,2.51,1.55,4.07-.34.12-1.45.47-1.92.44l-1.52-.07-2.21-.69-.41-.81,3.62.19-.27-2.44c-.02-.2-.31-.76-.16-.84l.84-.42.48.57Z"/>
  <path class="cls-28" d="M392.56,65.98l.12.93c-.58,2.72,1.41,1.58,1.27,3.89l-1.87.13-1.86-.5-.09-.48,1.57-1-.56-3.53,1.42.56Z"/>
  <path class="cls-14" d="M148.05,65.45l.44.14c0,.29,0,1.57-.42,1.58l-1.57.04-1.59,2.67c-.1.17-.95-.37-.87-.37l.13-.48c1.02.65,1.72-4.05.38-5.41,2.19.25,1.32,1.46,3.49,1.81Z"/>
  <path class="cls-18" d="M316.54,46.63l1.13,2.21-3.04,1.22c-.13-.23-.71-1.03-.47-1.29l1.02-1.11c-.54-.7-1.28-1.72-1.7-2.54,1.89.14,1.5,1.3,3.06,1.5Z"/>
  <path class="cls-3" d="M231.57,69.53l-1.57,1.48c.88,1.44,1.25,2.52,1.12,3.9-1.33-.2-2.11-1.93-2.17-3.49-.02-.54.64-1.89,1.13-2.02.41-.11,1.06.02,1.49.14Z"/>
  <path class="cls-8" d="M295.06,49.95l-.05,1.04c-.29.38-.75,1.01-.95,1.4-.51.16-1.21.43-1.57.63l-3.92-.04-.05-.56c1.92-1.33,2.69.89,5.01-1.41.51-.51,1.12-1.02,1.53-1.06Z"/>
  <path class="cls-20" d="M113.57,61.93l-.05,5.11c0,.46.75,1.31,1.09,1.45l.91,1.51c-3.02-.48-3.74-4.41-3-7.74l1.05-.33Z"/>
  <path class="cls-11" d="M386.14,64.38l-.58,2.09c-.86-.36-2.19-.52-3.04-.13l.14-1.3.92-1.14,1.44-.44,1.11.92Z"/>
  <path class="cls-19" d="M148.05,65.45c-2.17-.36-1.3-1.57-3.49-1.81l-.89-.1c-.62-.32-1.44-.49-2.19-.52l-.05-.45c.53-1.73,7.07,1.22,6.62,2.88Z"/>
  <path class="cls-5" d="M448.04,10.65l.67,2.43c.15.55-1.16,1.56-1.66,1.46-.27-.59-.39-1.51-.3-2.21l.21-1.75c.26.05.79.06,1.07.07Z"/>
  <path class="cls-10" d="M440.59,30.53l1.12,2.41c.13.28-.24,1.3-.42,1.55s-.57-.25-.83-.48l-.45-1.17c-.25-.65-.42-1.7-.44-2.41l1.02.1Z"/>
  <path class="cls-3" d="M261.56,77.48h.5l-.16,1.17-4.61-.67c-.18-.03-.4-1.27-.31-1,1.13.25,3.33.5,4.58.5Z"/>
  <path class="cls-24" d="M25.56,69.48l-.02.56-2.44.35c-.18.03-.69.75-.55.87l.96.83c.48.42.57,1.7.53,2.35-.27-.15-.81-.65-.96-.93l-1.61-2.89c.36-.34,1.15-1.16,1.57-1.16l2.54.02Z"/>
  <path class="cls-11" d="M386.5,66.96l.11,1.17c.03.29.69.37.96.42l.43.42.08,1.11c-1.67.77-2.27-2.19-2.48-3.09l.91-.04Z"/>
  <path class="cls-20" d="M119.06,52.09l-1.49-.11-1.32-.66-1.68-.84c.1-.23.16-.51.33-.48s.77.14.96.21l2.68.87c.27.09.44.77.53,1.01Z"/>
  <path class="cls-13" d="M124.56,70.4c-.59,1.05-1.99,1.8-3.29,1.68l-1.21-.11v-.5l4.49-1.08Z"/>
  <path class="cls-18" d="M254.08,70.96c-.12.82-.2,2.17-.12,3.01l-.87-.08-.47-1.87c-.07-.27.01-1.36.27-1.31l1.2.25Z"/>
  <path class="cls-25" d="M189.21,31.82l-1.71.15c-.23.02-.69-.11-.93-.12l-.02-.78c.94-.12,2.27-.34,2.66.76Z"/>
  <path class="cls-18" d="M312.66,45.07c-.46.99-4.08-.44-3.19-1.02,1.15.06,2.33.32,3.19,1.02Z"/>
  <path class="cls-15" d="M266.12,88.89c-.39.94-3.05.71-3.05.32v-.72s2.53-.03,2.53-.03l.52.44Z"/>
  <path class="cls-25" d="M185.04,20.85c-1.18-.18-1.91-.42-2.48-.99l.03-.49c.96.37,2.11.56,2.45,1.48Z"/>
  <path class="cls-3" d="M28.61,76.12l.02.72-1.19.48c-.28.11-.66-.42-.84-.65l.49-.62,1.52.07Z"/>
  <path class="cls-13" d="M122.06,53.48l.96,1.1c-.93-.02-3.05-.35-3.01-1.61l2.06.51Z"/>
  <path class="cls-11" d="M438.9,29.05l-1.85-1.09-.02-.53,1.47.37c.34.09.38.9.4,1.24Z"/>
  <path class="cls-26" d="M27.56,70c-.55,0-1.52-.04-2.02.03l.02-.56,1.31-.62c.33-.16.68.86.68,1.14Z"/>
  <path class="cls-3" d="M256.48,76.91l-1.35-.24c-.34-.06-.35-.94-.49-1.25.78.14,1.55.75,1.83,1.49Z"/>
  <path class="cls-13" d="M254.58,89.48c-.39-.2-.88-.57-1.14-.89l.99-.79.15,1.68Z"/>
  <path class="cls-11" d="M391.04,65.04l-1.54-.63.5-.58.94.44c.17.08.1.64.1.77Z"/>
  <path class="cls-20" d="M124.13,54.47l-.7.16c-.1-.02-.3-.05-.41-.05l-.96-1.1c.91-.12,1.96.11,2.06.99Z"/>
  <path class="cls-20" d="M120.06,71.48v.5c-.11.14-1.07.83-1.19.5l-.34-1.01,1.53.02Z"/>
  <path class="cls-27" d="M294.06,52.39c-.14.27-.36.82-.49,1.13l-1.08-.5c.36-.2,1.07-.47,1.57-.63Z"/>
  <path class="cls-20" d="M117.15,70.91l-.49.5c-.12.12-.53-.04-.55-.21l-.06-.81,1.09.53Z"/>
  <path class="cls-8" d="M293.05,36.46l.07.51c-.09.06-.68.67-.76.45l-.35-.95h1.04Z"/>
  <path class="cls-11" d="M390.14,69.96l.09.48-.91.55c-.22.13-.21-.75-.24-1.01l1.07-.02Z"/>
  <path class="cls-8" d="M295.67,38.9c-.17-.09-.64,0-.83-.03-.29-.04-.26-.68-.28-.98l.99.37c.16.06.12.48.12.64Z"/>
  <path class="cls-28" d="M389.06,69.98c-.25,0-.73.07-1,.11l-.08-1.11c.13.03.56.11.76.11.27,0,.29.63.32.89Z"/>
  <path class="cls-18" d="M262.58,76.46l-.02,1.06c-.13.03-.37-.04-.5-.04h-.5c0-.08-.08-.68.09-.73l.93-.28Z"/>
  <path class="cls-27" d="M386.14,51.95l-.79-.06c-.28-.02-.34-.67-.34-.92l1.05.3c.17.05.1.51.08.68Z"/>
  <path class="cls-27" d="M382.16,49.41h-.79c-.28-.02-.42-.64-.43-.87l1.12.18c.18.03.12.51.1.69Z"/>
  <path class="cls-3" d="M300.55,42.58l-.51-1.15,1.01.33c.25.08-.45.78-.51.82Z"/>
  <path class="cls-20" d="M132.64,65.98l-1.11-.24c-.18-.04-.09-.51-.05-.7.16,0,.6.04.8.02.28-.02.22.68.37.91Z"/>
  <path class="cls-3" d="M288.56,52.98c-.04.41-.03.85-.28,1-.17.1-.82-.06-.76-.24s.28-.94.28-.91.57.12.76.15Z"/>
  <path class="cls-13" d="M114.61,68.49c-.34-.13-1.09-.98-1.09-1.45l.05-5.11.69.11c.18.03.3.66.3.86l.04,5.58Z"/>
  <path class="cls-13" d="M126.07,68.42c-.03.17-.09.59-.14.77-.07.27-.61.32-.88.34.09-.16-.03-.72.14-.78l.88-.33Z"/>
  <path class="cls-27" d="M385.05,62.48l-.02.98-1.44.44c.18-.67.79-1.25,1.46-1.42Z"/>
  <path class="cls-29" d="M65.15,14.94c.08.02.28,0,.37.01-.43.96,1.45,1.39,3.64,2.38l2.37,1.07c.12.06.38.12.54.16l.79,1.66c-3.71.92,3.31,5.31-4.54,11.57-.85.68-3.49.32-4.51-.02l-2.36-.78-1.44-1.04c-.04-1.85.04-3.84.22-5.88-1.32-3.35-6.21-3.62-3.46-8.7l-.07-2.94,7.22,2.16,1.23.36Z"/>
  <path class="cls-6" d="M61.44,30.99l2.36.78c1.02.34,3.66.7,4.51.02,7.85-6.26.83-10.65,4.54-11.57l-.79-1.66c2.37.62,3.66,2.55,3.95,5.18.44,4.02-.88,1.17-3.44,4.66-1.08,1.48-2.13,2.96-3.51,4.13-1.26,1.07-7.31.71-7.63-1.55Z"/>
  <path class="cls-9" d="M82.56,29.66c1.38-.84,6.75,2.08,6.84.31l.15-2.96-3.22-.19-.78-1.71c-.17-.38-1.52-.3-1.9-.14l-2.57,1.11c-.3.13-.96.52-1.03.81-.09.38.22,1.19.51,1.46l1,1.16c-1.05-.2-2.61-1.68-2.52-2.94.96-1.36,3.79-3.25,5.35-2.81l5.93,1.67c1.02.29,2.32,1.49,3.79,2.64l-2.41.7-.45,1.67c-.5,1.86-8.45.36-8.7-.76Z"/>
  <path class="cls-6" d="M65.15,14.94l-1.23-.36-7.22-2.16.07,2.94c-2.76,5.08,2.13,5.35,3.46,8.7-.18,2.04-.27,4.03-.22,5.88-.84-.6-1.62-1.66-1.45-2.88l.46-3.43-2.88-2.9c-.82-.83-1.56-3-1.94-4.22.88-1.21.9-2.06.39-3.64,1.07-1.16,2.83-1.45,4.48-.88l5.45,1.89c.24.08.75,1.09.64,1.06Z"/>
  <path class="cls-2" d="M82.56,29.66l-1-.16-1-1.16c-.29-.27-.6-1.07-.51-1.46.07-.29.72-.68,1.03-.81l2.57-1.11c.37-.16,1.72-.24,1.9.14l.78,1.71,3.22.19-.15,2.96c-.09,1.78-5.46-1.14-6.84-.31Z"/>
  <path class="cls-22" d="M79.17,34.44c.02.47.06,1.28.14,1.81l.27,1.66-3.7-.73c-1.03-.27-1.89-1.14-2.33-2.08l-1.28-2.72c1.62-.88,6.81-.92,6.9,2.05Z"/>
  <path class="cls-6" d="M71.52,18.39l-2.37-1.07c-2.19-.98-4.07-1.42-3.64-2.38,1.23.27,6.01,1.91,6.01,3.44Z"/>
  <path class="cls-28" d="M79.58,37.92l-.27-1.66c-.09-.53-.13-1.34-.14-1.81l2.68,3.37-2.27.1Z"/>
  <path class="cls-17" d="M177.59,27.1c-2.42,2.13-2.09,3.17-5.32,6.04-3.53,1.27-7.37.02-9.22-3.24.57-10.83-2.49-3.54-4.4-12.12.79-.89.71-2.27.54-2.89-.21-.8,1-1.62,1.86-1.93,3.7,1.24,8.35,2.81,11.61,4.88l4.36,2.77c2.08,1.32-1.02,2.55.85,4.41.38.38.97.99.76,1.18l-1.03.91Z"/>
  <path class="cls-1" d="M190.06,31.98l-.86-.16c-.4-1.1-1.73-.88-2.66-.76-1.45.18-3.23-1.18-3.56-2.48v-1.23c0-.13.02-.32.02-.43,2.55.29,4.46-3.11,5.9-.36.29.55.74,1.28,1.1,1.23l2.6-.39-.03,3.77-2.51.8Z"/>
  <path class="cls-12" d="M183.64,38.59c-2.07-.17-3.94-.45-5.75-.93l-1.82-3.28c-.28-.5.43-1.85.95-1.85,1.68,0,4.4.52,4.91,1.8l1.71,4.26Z"/>
  <path class="cls-25" d="M182.98,27.36v1.23s-.95-.33-.95-.33c-.16-.06.14-.69.3-.73l.65-.17Z"/>
  <path class="cls-8" d="M284.57,33.49l-2.31.22-.28,2.24-.59,4.12c-2.08-1.43-.92-2.08-1.06-6.18-.02-.64,1.39-1.4,2.02-1.4s1.69.53,2.22.99Z"/>
  <path class="cls-8" d="M285.06,50.01c-.16-.28-1.05-.77-1.04-1.09l.22-4.71-1.6-2.32c1.37.09,2.75,1.51,2.68,2.93-.26,1.94-.34,3.51-.26,5.19Z"/>
  <path class="cls-8" d="M289.21,35.32l-2.59-.37-.1-.98c1.09.27,2.03.63,2.7,1.34Z"/>
  <path class="cls-27" d="M296.06,49.87c-.07.26-.06.9-.33.96l-.73.16.05-1.04,1.01-.08Z"/>
  <path class="cls-23" d="M14.04,52.83l.6.12c-.63,1.04,5.53,2.74,7.06,4.72-.68,1.45-.91,2.23-.82,3.28l-.7,1.72c.49.84,1.08,1.87.98,2.46-.08.49-.66,1.32-1.07,1.81l-2.14,2.55c-.6.72-2.9.7-3.82.52l-2.19-.43-1.4-.64c-.2-.69-.82-1.24-1.52-1.38-.02-.14-.05-.42-.04-.56.03-1.15.4-3.27.78-4.76l-1.33-1.12c-.29-.4-.92-1.22-1.37-1.55l-1.45-1.08-.77-3.41c.53-.85,1.08-1.97,1.06-2.72l-.03-1.26c0-.19,1.09-.38,1.27-.32l3.13,1c1.11.35,2.85.87,3.77,1.05Z"/>
  <path class="cls-21" d="M11.95,69.58l2.19.43c.91.18,3.22.19,3.82-.52l2.14-2.55c.41-.49.99-1.32,1.07-1.81.1-.59-.49-1.62-.98-2.46l.7-1.72c-.09-1.05.15-1.82.82-3.28-1.53-1.98-7.69-3.68-7.06-4.72,1.25.24,3.65,1.24,4.76,2l4.09,2.79c.71.48.92,1.97,1.1,2.93.14.75.94,2.63.29,3.05-4.49,2.91-2.75,3.36-6.77,6.85-.51.71-6.32.6-6.16-.99Z"/>
  <path class="cls-2" d="M34.59,62.43h.48c.05.54.36,1.65.67,2.12.36.55,1.86.17,2.62-.32,1.39-.03.15,2.56,1.34,3.13l.22,1.03-.03.48c-1.42.21-4.24.03-5.8-.25l-3.53-.63-1.67-2.45c.5-2.13,3.57-3.09,5.69-3.1Z"/>
  <path class="cls-21" d="M14.04,52.83c-.92-.18-2.66-.69-3.77-1.05l-3.13-1c-.18-.06-1.28.13-1.27.32l.03,1.26c.02.75-.53,1.87-1.06,2.72l.77,3.41c-1.07-.79-2.33-2.83-1.8-4.13l.61-1.5-.64-1.58c-.39-.97,3.3-1.55,4.85-1l3.83,1.34c.46.16,1.37.89,1.59,1.2Z"/>
  <path class="cls-8" d="M36.54,62.47l.09,1.03,2.04-.18c.42-.04.97.1,1.34.25.38,1.27.33,2.66-.3,3.79-1.19-.57.04-3.16-1.34-3.13-.76.49-2.27.87-2.62.32-.3-.47-.62-1.59-.67-2.12l1.46.04Z"/>
  <path class="cls-18" d="M40.62,68.49l-.69-.1-.22-1.03c.63-1.13.68-2.52.3-3.79,1.44.58,2.1.76,3.61,2.3.69.7-1.6.26-3,2.62Z"/>
  <path class="cls-18" d="M34.59,62.43c-2.13,0-5.19.97-5.69,3.1l-.79-.37c-.16-.07.08-1.06.21-1.2,2.38-2.42,6.23-2.57,6.24-2.25l.03.72Z"/>
  <path class="cls-21" d="M8.98,67c-.41-.09-.67-.13-.85-.35-.12-.14-.18-1.01-.15-1.28l.46-4.25,1.33,1.12c-.37,1.49-.74,3.62-.78,4.76Z"/>
  <polygon class="cls-18" points="38.67 63.32 36.62 63.5 36.54 62.47 38.55 62.53 38.67 63.32"/>
  <path class="cls-21" d="M10.54,68.94c-.61-.14-1.44-.81-1.52-1.38.71.14,1.32.69,1.52,1.38Z"/>
  <path class="cls-8" d="M39.89,68.86l.03-.48.69.1c-.11.18-.52.34-.73.37Z"/>
  <path class="cls-16" d="M250.03,84.17l-2.41,3.39c-.53.74-1.82,2.1-2.64,2.25-3.25.59-6.22-.66-8.01-3.39-.63-.96-.44-2.87-.09-4.18.79-3.02-2.05-1.32-3.97-6.35-1-2.61,1.17-1.11.25-4.96,1.31-3.72,16.91,4.85,18.8,7.47l-2.44.95,2.2,3.18c-.35.39-1.39,1.22-1.69,1.65Z"/>
  <path class="cls-1" d="M260.95,87.47c-1.61-.14-5.3-1.25-4.91-3.55l2.77-1.38c.83-.41,2.66-.83,3.11-.12.32.5.61,1.51.99,1.46l1.37-.18c.59-.08,1.83-.22,1.71-.2l-.06,4.11-3.76-.27c-.35-.03-.98.06-1.22.14Z"/>
  <path class="cls-13" d="M250.1,91.49l-.78-.06c-.28-.02-.27-.77-.19-1.04.19,0,.57-.05.63.11.09.25.24.78.34,1Z"/>
  <path class="cls-29" d="M421.02,10.04c1.14.45,3.31,1.34,4.63,1.4.11,0,.29-.02.37.01-.25,1.41,2.39,1.81,3.16,1.93l.95.15c.14.68.76,1.22,1.47,1.32l.49.17.74,1.59c-.38.98-.43,1.79-.39,2.91l.21,4.94c-.34.8-1.06,1.84-1.61,2.51-.16-.17-.63-.64-.38-.39l-2.44,1.76c-.21.15-.56.47-.65.56l-.9-.02c.1-.23-.53-1.17-.85-1.03l-1.37.59-.8.1v-.76s-1.85-2.28-1.85-2.28c-.64-.79-.29-2.95,0-4.25.55-2.46-4.99-3.42-3.81-7.86.28-1.06.48-2.22.7-3.51.3-.11,1.78-.06,2.33.15Z"/>
  <path class="cls-22" d="M449.77,26.21c.2,3-11.73,0-10.52-3.07.65-1.31,3.31-2.86,4.7-2.51l4.41,1.11c.68.17,1.99,1.13,2.14,1.52-.49,1.04-.78,2.05-.72,2.95Z"/>
  <path class="cls-24" d="M434.47,16.01c.93,1.02,2.37,5.75,1.23,6.48l-3.05,1.97-.21-4.94c-.05-1.12,0-1.93.39-2.91l-.74-1.59,2.38.98Z"/>
  <path class="cls-9" d="M431.04,26.98c-.62,1.28-2.11,2.31-3.47,1.93.09-.1.45-.41.65-.56l2.44-1.76c-.25-.25.22.22.38.39Z"/>
  <path class="cls-9" d="M426.67,28.89c-.73.02-1.8-.13-2.22-.44l1.37-.59c.33-.14.95.8.85,1.03Z"/>
  <path class="cls-16" d="M28.1,51.44c.9.85,2.21,1.31,3.48,1.48l.87.12c-.41,1,2.04,1.27,2.65,1.46l.47.45v1.59s-.89.51-.89.51l-2.67-.11-.51.53c-1.49-.48-3.61-1.89-4.49-2.93l-.42-3.05,1.53-.04Z"/>
  <path class="cls-25" d="M26.57,51.48l.42,3.05c-.42-.5-1.76-.95-1.59-1.88l.29-1.57c.05-.27.72.27.87.39Z"/>
  <path class="cls-25" d="M31.57,52.92c-1.26-.17-2.58-.63-3.48-1.48,1.21-.71,3.06.14,3.48,1.48Z"/>
  <path class="cls-25" d="M34.67,57.04c-.32,1.74-2.1.77-3.19.42l.51-.53,2.67.11Z"/>
  <path class="cls-25" d="M35.09,54.49c-.61-.19-3.06-.46-2.65-1.46,1.13.15,2.48.35,2.65,1.46Z"/>
  <path class="cls-25" d="M35.56,56.53v-1.59s1,.29,1,.29c.27.08.02,1.22-.26,1.25l-.74.06Z"/>
  <path class="cls-12" d="M177.17,8.13l-3.81,1.67c-1.43.63-3.63-1.7-3.76-3.08l4.51-.83,3.06,2.25Z"/>
  <path class="cls-12" d="M131.96,70.63c2.13.42,1.63,4.49,3.55,5.39-1.76.12-4.03-.15-6.16-.79l-2.1-4.5c1.69-.32,2.98-.44,4.71-.11Z"/>
  <path class="cls-1" d="M82.2,14.97c.49.12,1.39.48,1.9.67l.98.95c.39.38.89,1.38,1.03,1.94l-.46.44h-3.13s-.54.48-.54.48c-1.5-.21-2.77-1.41-4-2.42l-.5-3.2,4.74,1.13Z"/>
  <path class="cls-25" d="M82.2,14.97l-4.74-1.13.5,3.2c-.6-.49-1.34-1.03-1.74-1.52-.35-.42-.11-2.33.43-2.37,1.75-.14,5.85.33,5.54,1.82Z"/>
  <path class="cls-25" d="M86.1,18.53c-.14-.56-.63-1.56-1.03-1.94l-.98-.95c.9-.56,4.3,1.97,3.28,2.38l-1.28.51Z"/>
  <path class="cls-25" d="M85.64,18.97l-.36.93c-.07.18-1.12.3-1.3.23l-2.02-.69.54-.49h3.13Z"/>
  <path class="cls-7" d="M246.75,66.94l-3.14-3.09c1.87-.97,2.95-1.18,4.94-.64-.24,1.28-.65,2.01-1.79,3.73Z"/>
  <path class="cls-8" d="M128.24,46.3l-2.39.94c-.44.17-1.54.9-1.9.62l-1.64-1.27c-.79-.61-1.32-1.97-1.27-2.9l4.53-.6,2.75,1.56c.17.1.65.52.79.65.21.2-.57.86-.89.99Z"/>
  <path class="cls-21" d="M22.97,45.69l-3.66,1.45c-1.38.55-3.43-1.49-4.05-2.65l-.64-1.2c-.12-.23.76-.54,1.04-.59l4.08-.69,2.78,1.55c.37.21.82.52,1.06.69s-.34,1.32-.62,1.43Z"/>
  <path class="cls-25" d="M68.61,8.48c.96.18,2.12-.73,2.21-1.72l.12-1.28c.02-.26-.96-.28-1.21-.23l-2.52.47c-.27.05-.27,1.13-.24,1.21l-1.34-.75c-.28-.2.3-1.37.64-1.43l4.56-.71c1.51.89,2.51,1.63,4.2,3.04l-4.85,2.4c-.27.13-1.37-.16-1.43-.41l-.14-.6Z"/>
  <path class="cls-7" d="M68.61,8.48l-1.64-1.55c-.03-.08-.02-1.16.24-1.21l2.52-.47c.26-.05,1.24-.03,1.21.23l-.12,1.28c-.09,1-1.25,1.9-2.21,1.72Z"/>
  <path class="cls-9" d="M421.07,9.41l-.05.63c-.55-.22-2.03-.27-2.33-.15-.22,1.29-.42,2.44-.7,3.51-1.18,4.44,4.36,5.4,3.81,7.86-.29,1.3-.63,3.46,0,4.25l1.85,2.28c-1.09-.14-2.18-.92-2.91-1.9-1.57-2.12,1.64-4.63-1.74-7.33-1.43-1.14-2.27-2.83-2.1-4.45l.11-1.23c0-.85.03-2.65.5-3.34.75-1.08,2.65-.36,3.56-.13Z"/>
  <path class="cls-24" d="M425.65,11.44c-1.32-.05-3.49-.94-4.63-1.4l.05-.63,3.57.92c.21.05.81.35.91.49.11.16.1.35.1.61Z"/>
  <path class="cls-24" d="M429.18,13.38c-.77-.12-3.41-.53-3.16-1.93l2.89,1.09c.16.06.35,1,.27.84Z"/>
  <path class="cls-24" d="M431.6,14.86c-.7-.1-1.33-.64-1.47-1.32.62.1,1.3.73,1.47,1.32Z"/>
  <path class="cls-24" d="M417.01,12.88l-.11,1.23-.83-.43c-.15-.08.12-.6.28-.64l.66-.16Z"/>
  <path class="cls-22" d="M396.97,48.6c.34.71,1.14,1.22,1.96,1.37l-.1,1.93c-.02.43-2.8,2.44-7.23-.98-1.13-.88-1.59-1.9-2-3.81,4.06-1.09,4.33,1.54,7.38,1.49Z"/>
  <path class="cls-28" d="M398.93,49.97c-.82-.15-1.62-.66-1.96-1.37l.47-1.92c.28-.48,2.79.42,2.47,1.1-.42.83-.96,1.64-.99,2.19Z"/>
  <path class="cls-16" d="M401.09,63.82c-.36.06-1.08.14-1.44.09l-.53-1.01-4.68-.84c-.89-.16-1.7-.73-1.99-1.59-.03-1.75,3.8-3.39,5.32-3.16l1.5,2.17,2.62-.71c.39,1.83.36,3.76-.82,5.05Z"/>
  <path class="cls-25" d="M399.65,63.91l-3.49-.54c-.54-.08-1.48-.9-1.72-1.3l4.68.84.53,1.01Z"/>
  <path class="cls-6" d="M387.43,41.17l-3.59,1.42c-1.65.65-3.68-1.9-3.86-3.78l4.05-.8c.87-.17,5.07,2.49,3.4,3.15Z"/>
  <path class="cls-14" d="M310.06,38.96c.31-3.1-3.46-1.72-4.01-3.88l1.85.39.51-2.04,3.61,1.61c-1.54,2.22-.52,3.67-1.26,3.8l-.7.12Z"/>
  <path class="cls-14" d="M301.55,34l-.49,2.46c-.35-.08-1.06-.89-1.11-1.32-.03-.24.3-1.4.54-1.35l1.06.22Z"/>
  <path class="cls-14" d="M305.63,34.97c-1.1-.1-2.29-.44-3.15-1.02.36-.2,1.53-.26,2.01-.09l1.08.4c.18.07.1.52.06.71Z"/>
  <path class="cls-28" d="M435.35,4.14c-1.45,1.98-3.27,2.78-5.33,2.26-1.72-.43-2.94-2.09-3.57-4.11,4.25-.8,5.57-2.04,8.91,1.84ZM431.99,2.49l-4.03.45c.14,1.2,1.46,2.63,2.5,2.48,1.25-.17,1.75-1.68,1.52-2.94Z"/>
  <path class="cls-18" d="M263.09,76.05c-.04-.45-.32-1.5-.7-1.78l-1.8-1.31.26-2.35c1.16-.26,3.7.71,4.14,1.77.16.38-1.18,1.37-1.27,1.36.25.43,1,1.56.62,1.74l-1.25.58Z"/>
  <path class="cls-18" d="M258.6,72l-2.64-1.04c.39-.21,1.22-.46,1.65-.35s.95,1,.99,1.38Z"/>
  <path class="cls-14" d="M140.15,69.44l-1.1-.19c-.17-.03-.11-.5-.09-.68.19-.02.61-.05.82-.05.29,0,.4.71.37.92Z"/>
  <path class="cls-2" d="M313.08,50.74l-5.65-.94c-1.66-.28-3.01-1.13-3.76-2.9l4.41-2.1,2.05,2.38,2.4-.19.56,3.76Z"/>
  <path class="cls-25" d="M189.13,19.91c.44-3.31-2.51-2.12-3.02-3.86.56-.3,1-.63,1.92-1.36.75-.59,2.59.27,3.13,1.19l-1.46,1.38c.35.52,1.12,1.46.79,1.69l-1.35.97Z"/>
  <path class="cls-25" d="M184.13,14.47l1.47,1.52-2.06-.47-2.81-.64-.23,2.13-1.01-.81c-.37-.3.23-1.97.68-1.96,1.07.03,3.04.17,3.96.23Z"/>
  <path class="cls-28" d="M446.97,10.59l-.21,1.75c-.08.7.03,1.61.3,2.21l-1.02,1.41-.47-1.08c-.24-.56-.73-1.32-1.1-1.64l-1.41-1.19c.57-.13.92-.9,1.31-1.98l2.59.51Z"/>
  <path class="cls-28" d="M441.17,11.41l-2.62-.55-.13-.75c1.08-.21,2.65.16,2.75,1.3Z"/>
  <path class="cls-28" d="M437.62,10.14l-.65,1.87c-.31-.02-1.22-.99-.9-1.3s1.1-.55,1.54-.57Z"/>
  <path class="cls-14" d="M303.01,57.88l.09-3.4c.06,0,.7.42.83.61l1.76,2.75-2.68.03Z"/>
  <path class="cls-14" d="M297.55,51.97c-.2.52-.2,1.34-.02,1.87l.55,1.67c-1.58-.21-2.55-3.76-1.58-3.65l1.05.12Z"/>
  <path class="cls-14" d="M301.67,57.89c-.47,0-1.46-.25-1.7-.44l.91-.54c.31-.18.92.83.79.98Z"/>
  <path class="cls-28" d="M387.57,68.56c-.26-.05-.93-.13-.96-.42l-.11-1.17c.29-.01,1.03,0,1.04.3l.03,1.29Z"/>
  <path class="cls-14" d="M143.67,63.53l-1.39.56c-.34.14-.75-.71-.79-1.08.74.03,1.57.2,2.19.52Z"/>
  <path class="cls-20" d="M393.95,70.8c.14-2.31-1.85-1.16-1.27-3.89,1.3-.03,2.48,2.36,2.35,3.44-.03.26-.82.43-1.08.45Z"/>
  <path class="cls-7" d="M431.99,2.49c.23,1.26-.27,2.76-1.52,2.94-1.05.14-2.36-1.29-2.5-2.48l4.03-.45Z"/>
</svg>